<?xml version="1.0" encoding="utf-8"?>
<!-- Generator: Adobe Illustrator 16.0.4, SVG Export Plug-In . SVG Version: 6.00 Build 0)  -->
<!DOCTYPE svg PUBLIC "-//W3C//DTD SVG 1.1//EN" "http://www.w3.org/Graphics/SVG/1.1/DTD/svg11.dtd">
<svg version="1.1" id="Layer_1" xmlns="http://www.w3.org/2000/svg" xmlns:xlink="http://www.w3.org/1999/xlink" x="0px" y="0px"
	 width="708.66px" height="850.39px" viewBox="0 0 708.66 850.39" enable-background="new 0 0 708.66 850.39" xml:space="preserve">
<polygon fill="#D6D232" points="-574.715,557.438 -588.805,557.438 -588.805,569.219 -574.715,569.219 -574.715,623.973 
	-563.26,623.973 -563.26,569.219 -549.17,569.219 -549.17,557.438 -563.26,557.438 "/>
<g>
	<g>
		<path fill="#D6D232" d="M-529.933,557.438c-10.494,0-19.069,8.207-19.667,18.549l-0.037-0.002v47.988h11.454l0.007-18.527h16.493
			v18.527h11.455v-46.83C-510.228,566.26-519.05,557.438-529.933,557.438z M-521.683,595.039v7.283h-16.492l0.009-25.463
			c0.162-4.41,3.78-7.941,8.233-7.941c4.558,0,8.25,3.693,8.25,8.25V595.039z"/>
	</g>
</g>
<polygon fill="#D6D232" points="-452.013,557.438 -466.103,557.438 -466.103,569.219 -452.013,569.219 -452.013,623.973 
	-440.558,623.973 -440.558,569.219 -426.468,569.219 -426.468,557.438 -440.558,557.438 "/>
<path fill="#D6D232" d="M-546.484,521.609h11.492c-0.609-10.334-9.158-18.533-19.646-18.533c-0.003,0-0.007,0.002-0.01,0.002v11.479
	c0.003,0,0.007,0,0.01,0C-550.488,514.557-547.066,517.621-546.484,521.609z"/>
<path fill="#D6D232" d="M-468.105,574.961c-0.619-10.307-9.135-18.48-19.59-18.508v-0.002h-8.354h-3.146h-8.317v67.35h11.463
	v-18.818h9.059v-0.008c4.172,0.41,7.432,3.91,7.432,8.189v1.508v9.301h11.457v-10.832c0-5.445-2.213-10.377-5.783-13.943
	c3.57-3.566,5.783-8.498,5.783-13.943v-10.293H-468.105z M-479.56,583.719v1.51c0,4.324-3.332,7.859-7.568,8.207h-8.922v-25.52
	h8.292v0.016c0.003,0,0.007,0,0.01,0c4.149,0,7.571,3.064,8.153,7.051h0.035V583.719z"/>
<path fill="#D6D232" d="M-452.02,350.881h11.492c-0.609,10.334-9.158,18.531-19.646,18.531c-0.003,0-0.007,0-0.01,0v-11.48
	c0.003,0,0.007,0,0.01,0C-456.023,357.932-452.602,354.867-452.02,350.881z"/>
<g>
	<path fill="#D6D232" d="M-554.647,535.609h11.516c0.58-3.982,3.995-7.047,8.14-7.053v-11.479
		C-545.476,517.082-554.042,525.277-554.647,535.609z"/>
</g>
<g>
	<path fill="#D6D232" d="M-392.841,604.082c-0.58,3.986-4,7.053-8.149,7.053s-7.571-3.064-8.153-7.053h-11.492
		c0.609,10.334,9.158,18.533,19.646,18.533c10.488,0,19.06-8.199,19.665-18.533H-392.841z"/>
</g>
<g>
	<path fill="#D6D232" d="M-381.325,604.082h-11.516c-0.58-3.982-3.995-7.047-8.14-7.051v-11.48
		C-390.497,585.557-381.931,593.752-381.325,604.082z"/>
</g>
<path fill="#D6D232" d="M-400.99,555.57c-10.487,0-19.036,8.197-19.646,18.531v4.449c0.609,10.334,9.158,18.531,19.646,18.531
	c0.003,0,0.007,0,0.01,0v-11.48c-0.003,0-0.007,0-0.01,0c-4.149,0-7.571-3.064-8.153-7.051v-4.449
	c0.582-3.986,4.004-7.051,8.153-7.051s7.569,3.066,8.149,7.051h11.516C-381.931,563.768-390.502,555.57-400.99,555.57z"/>
<g>
	<g>
		<path fill="#D6D232" d="M-358.981,555.824c-10.494,0-19.069,8.207-19.667,18.549l-0.037-0.002v16.334v1.387v13.334l0.037-0.002
			c0.598,10.342,9.173,18.549,19.667,18.549c10.883,0,19.705-8.822,19.705-19.705v-12.176v-1.387v-15.176
			C-339.276,564.646-348.099,555.824-358.981,555.824z M-350.731,592.092v12.15c0,4.557-3.692,8.25-8.25,8.25
			c-4.453,0-8.071-3.531-8.233-7.941l-0.005-13.221l0.005-16.084c0.162-4.41,3.78-7.941,8.233-7.941c4.558,0,8.25,3.693,8.25,8.25
			v15.15V592.092z"/>
	</g>
</g>
<g>
	<path fill="#D6D232" d="M-510.228,357.129v-1.281c0-10.883-8.822-19.705-19.705-19.705c-10.494,0-19.069,8.207-19.667,18.549
		l-0.037-0.002v29.455h16.566v0.006h3.139v-0.006h19.704v-3.234l-27.947,0.117l0.009-25.463c0.162-4.41,3.78-7.941,8.233-7.941
		c4.558,0,8.25,3.693,8.25,8.25v1.256H-510.228z"/>
</g>
<g>
	<path fill="#D6D232" d="M-485.807,373.785h11.516c0.58,3.982,3.995,7.047,8.14,7.053v11.479
		C-476.635,392.312-485.201,384.117-485.807,373.785z"/>
</g>
<g>
	<path fill="#D6D232" d="M-466.043,399.369c-2.676,0-5.043-1.279-6.546-3.254h-12.52c2.201,8.475,9.9,14.734,19.065,14.734
		c10.487,0,19.036-8.199,19.646-18.533h-11.492C-458.472,396.305-461.894,399.369-466.043,399.369z"/>
</g>
<rect x="-467.011" y="380.793" fill="#D6D232" width="20.613" height="11.523"/>
<polygon fill="#D6D232" points="-242.049,215.064 -256.139,215.064 -256.139,226.845 -242.049,226.845 -242.049,281.599 
	-230.594,281.599 -230.594,226.845 -216.504,226.845 -216.504,215.064 -230.594,215.064 "/>
<g>
	<path fill="#D6D232" d="M-265.043,251.678c-0.003,0-0.007,0-0.01,0v-0.098h-12.49c-3.766-0.379-6.775-3.293-7.316-7.008h-0.099
		l0.004-10.087c0.162-4.41,3.78-7.941,8.233-7.941c4.558,0,8.25,3.693,8.25,8.25v1.257h11.455v-1.282
		c0-10.883-8.822-19.705-19.705-19.705c-10.494,0-19.069,8.207-19.667,18.549l-0.037-0.002v10.962h0.05
		c0.589,10.045,8.71,18.048,18.796,18.489v0.042h9.121c-0.582,3.987-4.004,7.052-8.153,7.052c-2.676,0-5.043-1.279-6.546-3.254
		h-12.52c2.201,8.475,9.9,14.734,19.065,14.734c10.487,0,19.036-8.198,19.646-18.532v-4.77
		C-257.71,254.543-261.033,251.678-265.043,251.678z"/>
</g>
<g>
	<g>
		<path fill="#D6D232" d="M-197.073,215.557c-10.494,0-19.069,8.207-19.667,18.549l-0.037-0.002v47.988h11.454l0.007-18.527h16.493
			v18.527h11.455v-46.83C-177.368,224.379-186.19,215.557-197.073,215.557z M-188.823,253.159v7.283h-16.492l0.009-25.463
			c0.162-4.41,3.78-7.941,8.233-7.941c4.558,0,8.25,3.693,8.25,8.25V253.159z"/>
	</g>
</g>
<polygon fill="#D6D232" points="-119.153,215.557 -133.243,215.557 -133.243,227.338 -119.153,227.338 -119.153,282.092 
	-107.698,282.092 -107.698,227.338 -93.608,227.338 -93.608,215.557 -107.698,215.557 "/>
<path fill="#D6D232" d="M-135.246,233.081c-0.619-10.306-9.135-18.479-19.59-18.507v-0.003h-8.354h-3.146h-8.317v67.35h11.463
	v-18.818h9.059v-0.008c4.172,0.41,7.432,3.91,7.432,8.189v1.508v9.301h11.457V271.26c0-5.445-2.213-10.377-5.783-13.943
	c3.57-3.566,5.783-8.498,5.783-13.943v-10.293H-135.246z M-146.7,241.838v1.51c0,4.324-3.332,7.859-7.568,8.207h-8.922v-25.52h8.292
	v0.016c0.003,0,0.007,0,0.01,0c4.149,0,7.571,3.064,8.153,7.052h0.035V241.838z"/>
<g>
	<g>
		<path fill="#D6D232" d="M-260.981,424.824c-10.494,0-19.069,8.207-19.667,18.549l-0.037-0.002v16.334v1.387v13.334l0.037-0.002
			c0.598,10.342,9.173,18.549,19.667,18.549c10.883,0,19.705-8.822,19.705-19.705v-12.176v-1.387v-15.176
			C-241.276,433.646-250.099,424.824-260.981,424.824z M-252.731,461.092v12.15c0,4.557-3.692,8.25-8.25,8.25
			c-4.453,0-8.071-3.531-8.233-7.941l-0.005-13.221l0.005-16.084c0.162-4.41,3.78-7.941,8.233-7.941c4.558,0,8.25,3.693,8.25,8.25
			v15.15V461.092z"/>
	</g>
</g>
<polygon fill="#D6D232" points="-308.013,425.438 -322.103,425.438 -322.103,437.219 -308.013,437.219 -308.013,491.973 
	-296.558,491.973 -296.558,437.219 -282.468,437.219 -282.468,425.438 -296.558,425.438 "/>
<g>
	<g>
		<path fill="#D6D232" d="M-336.717,214.751c-10.494,0-19.069,8.207-19.667,18.549l-0.037-0.002v16.333v1.388v13.333l0.037-0.002
			c0.598,10.342,9.173,18.549,19.667,18.549c10.883,0,19.705-8.822,19.705-19.705v-12.175v-1.388v-15.175
			C-317.012,223.573-325.834,214.751-336.717,214.751z M-328.467,251.019v12.149c0,4.557-3.692,8.25-8.25,8.25
			c-4.453,0-8.071-3.531-8.233-7.941l-0.005-13.22l0.005-16.084c0.162-4.41,3.78-7.941,8.233-7.941c4.558,0,8.25,3.693,8.25,8.25
			v15.149V251.019z"/>
	</g>
</g>
<polygon fill="#D6D232" points="-383.748,215.363 -397.838,215.363 -397.838,227.145 -383.748,227.145 -383.748,281.898 
	-372.293,281.898 -372.293,227.145 -358.203,227.145 -358.203,215.363 -372.293,215.363 "/>
<g>
	<path fill="#D6D232" d="M-515.177,144.468c-0.003,0-0.007,0-0.01,0v-0.098h-12.49c-3.766-0.379-6.775-3.293-7.316-7.008h-0.099
		l0.004-10.087c0.162-4.41,3.78-7.941,8.233-7.941c4.558,0,8.25,3.693,8.25,8.25v1.257h11.455v-1.282
		c0-10.883-8.822-19.705-19.705-19.705c-10.494,0-19.069,8.207-19.667,18.549l-0.037-0.002v10.962h0.05
		c0.589,10.045,8.71,18.048,18.796,18.489v0.042h9.121c-0.582,3.987-4.004,7.052-8.153,7.052c-2.676,0-5.043-1.279-6.546-3.254
		h-12.52c2.201,8.475,9.9,14.734,19.065,14.734c10.487,0,19.036-8.198,19.646-18.532v-4.77
		C-507.844,147.333-511.167,144.468-515.177,144.468z"/>
</g>
<path fill="#D6D232" d="M-381.244,107.867h-11.457v26.292v1.51c0,4.324-3.332,7.859-7.568,8.207h-8.922v-36.008h-11.463v66.374
	h11.463v-18.818h9.059v-0.008c4.172,0.41,7.432,3.91,7.432,8.189v1.508v9.301h11.457V163.58c0-5.445-2.213-10.377-5.783-13.943
	c3.57-3.566,5.783-8.498,5.783-13.943V107.867z"/>
<polygon fill="#D6D232" points="-476.52,107.867 -476.52,144.472 -493.011,144.472 -493.005,107.867 -504.474,107.867 
	-504.474,174.412 -493.02,174.412 -493.013,156.028 -476.52,156.028 -476.52,174.412 -465.064,174.412 -465.064,107.867 "/>
<g>
	<g>
		<path fill="#D6D232" d="M-442.359,107.872c-10.494,0-19.069,8.207-19.667,18.549l-0.037-0.002v47.988h11.454l0.007-18.527h16.493
			v18.527h11.455v-46.83C-422.654,116.694-431.477,107.872-442.359,107.872z M-434.109,145.474v7.283h-16.492l0.009-25.463
			c0.162-4.41,3.78-7.941,8.233-7.941c4.558,0,8.25,3.693,8.25,8.25V145.474z"/>
	</g>
</g>
<g>
	<polygon fill="#D6D232" points="-366.45,162.631 -366.447,155.885 -352.897,155.885 -352.897,152.762 -366.446,152.762 
		-366.441,119.648 -338.387,119.648 -338.387,107.867 -366.439,107.867 -377.908,107.867 -378.021,107.867 -378.021,119.648 
		-377.908,119.648 -377.908,162.631 -378.021,162.631 -378.021,174.412 -377.908,174.412 -366.454,174.412 -338.386,174.412 
		-338.386,162.631 	"/>
</g>
<rect x="-457.503" y="144.005" fill="#D6D232" width="30.288" height="11.907"/>
<rect x="-372.503" y="144.005" fill="#D6D232" width="20.996" height="11.907"/>
<rect x="-212.217" y="251.959" fill="#D6D232" width="30.288" height="11.907"/>
<g>
	<g>
		<path fill="#D6D232" d="M-353.816,368.324v-0.01h-19.914v9.83v1.654v43.566v2.664v8.82h19.914v-0.012
			c10.785-0.113,19.496-8.883,19.496-19.693V388.02C-334.32,377.207-343.031,368.439-353.816,368.324z M-345.775,415.119
			c0,4.529-3.652,8.203-8.174,8.246h-8.326v-43.566h8.326c4.521,0.041,8.174,3.715,8.174,8.246V415.119z"/>
	</g>
</g>
<path fill="#D6D232" d="M-133.246,410.186c-0.619-10.305-9.135-18.479-19.59-18.506v-0.004h-8.354h-3.146h-8.317v67.35h11.463
	v-18.818h9.059v-0.008c4.172,0.41,7.432,3.91,7.432,8.189v1.508v9.301h11.457v-10.832c0-5.445-2.213-10.377-5.783-13.943
	c3.57-3.566,5.783-8.498,5.783-13.943v-10.293H-133.246z M-144.7,418.943v1.51c0,4.324-3.332,7.859-7.568,8.207h-8.922v-25.52h8.292
	v0.016c0.003,0,0.007,0,0.01,0c4.149,0,7.571,3.064,8.153,7.053h0.035V418.943z"/>
<path fill="#D6D232" d="M-223.674,391.676h4.327c3.598-0.418,6.474-3.15,7.13-6.67v-4.162c0-5.445-2.213-10.377-5.783-13.943
	c3.57-3.566,5.783-8.498,5.783-13.943v-10.293h-0.003c-0.619-10.305-9.135-18.479-19.59-18.506v-0.004h-8.354h-3.146h-8.317v67.35
	h11.463v-18.818h9.059v-0.008c4.172,0.41,7.432,3.91,7.432,8.189v1.508V391.676z M-231.242,361.139h-8.922v-25.52h8.292v0.016
	c0.003,0,0.007,0,0.01,0c4.149,0,7.571,3.064,8.153,7.053h0.035v8.734v1.51C-223.674,357.256-227.006,360.791-231.242,361.139z"/>
<path fill="#D6D232" d="M-232.646,380.195c-2.641-0.027-4.975-1.297-6.462-3.25h-12.52c2.194,8.449,9.854,14.693,18.981,14.73
	V380.195z"/>
<rect x="-232.646" y="380.195" fill="#D6D232" width="14.638" height="11.48"/>
<path fill="#D6D232" d="M-407.02,387.881h11.492c-0.609,10.334-9.158,18.531-19.646,18.531c-0.003,0-0.007,0-0.01,0v-11.48
	c0.003,0,0.007,0,0.01,0C-411.023,394.932-407.602,391.867-407.02,387.881z"/>
<rect x="-373.73" y="423.365" fill="#D6D232" width="19.914" height="11.473"/>
<g>
	<path fill="#D6D232" d="M-130.817,343.828c-0.003,0-0.007,0-0.01,0v-0.098h-12.49c-3.766-0.379-6.775-3.293-7.316-7.008h-0.099
		l0.004-10.088c0.162-4.41,3.78-7.941,8.233-7.941c4.558,0,8.25,3.693,8.25,8.25v1.258h11.455v-1.283
		c0-10.882-8.822-19.705-19.705-19.705c-10.494,0-19.069,8.207-19.667,18.548l-0.037-0.002v10.963h0.05
		c0.589,10.045,8.71,18.047,18.796,18.488v0.043h9.121c-0.582,3.986-4.004,7.051-8.153,7.051c-2.676,0-5.043-1.279-6.546-3.254
		h-12.52c2.201,8.475,9.9,14.734,19.065,14.734c10.487,0,19.036-8.197,19.646-18.531v-4.77
		C-123.484,346.693-126.808,343.828-130.817,343.828z"/>
</g>
<g>
	<rect x="-221.339" y="534.631" fill="#D6D232" width="11.463" height="11.301"/>
	<path fill="#D6D232" d="M-181.929,497.092h-0.003c-0.619-10.305-9.135-18.479-19.59-18.506v-0.004h-0.986v11.465h0.924v0.016
		c0.003,0,0.007,0,0.01,0c4.149,0,7.571,3.064,8.153,7.053h0.035v8.734v1.51c0,4.324-3.332,7.859-7.568,8.207h-1.554v11.547h1.69
		v-0.008c4.172,0.41,7.432,3.91,7.432,8.189v1.508v9.301h11.457v-10.832c0-5.445-2.213-10.377-5.783-13.943
		c3.57-3.566,5.783-8.498,5.783-13.943V497.092z"/>
</g>
<g>
	<path fill="#D6D232" d="M-510.283,65.12c-0.637-10.301-9.187-18.464-19.648-18.469v-0.012c-0.003,0-0.007,0-0.01,0
		c-4.149,0-7.571-3.064-8.153-7.052v-4.448c0.582-3.987,4.004-7.052,8.153-7.052s7.569,3.066,8.149,7.052h11.516
		c-0.605-10.334-9.177-18.532-19.665-18.532c-10.487,0-19.036,8.198-19.646,18.532v4.448c0.609,10.334,9.158,18.532,19.646,18.532
		c0.003,0,0.007-0.001,0.01-0.001v0.012c4.134,0.005,7.54,3.054,8.134,7.021c-0.593,3.967-4,7.016-8.134,7.021v0.008h-19.655v11.473
		h19.914v-0.013c10.343-0.141,18.759-8.242,19.39-18.457h0.007c-0.001-0.011-0.003-0.021-0.003-0.031s0.002-0.021,0.003-0.031
		H-510.283z"/>
</g>
<path fill="#D6D232" d="M-384.317,16.607h-11.457v26.292v1.51c0,4.324-3.332,7.859-7.568,8.207h-8.922V16.607h-11.463V82.98h11.463
	V64.162h9.059v-0.008c4.172,0.41,7.432,3.91,7.432,8.189v1.508v9.301h11.457V72.32c0-5.445-2.213-10.377-5.783-13.943
	c3.57-3.566,5.783-8.498,5.783-13.943V16.607z"/>
<polygon fill="#D6D232" points="-479.593,16.607 -479.593,53.212 -496.084,53.212 -496.078,16.607 -507.547,16.607 -507.547,83.152 
	-496.093,83.152 -496.086,64.768 -479.593,64.768 -479.593,83.152 -468.138,83.152 -468.138,16.607 "/>
<g>
	<g>
		<path fill="#D6D232" d="M-445.433,16.612c-10.494,0-19.069,8.207-19.667,18.549l-0.037-0.002v47.989h11.454l0.007-18.527h16.493
			v18.527h11.455V36.317C-425.728,25.435-434.55,16.612-445.433,16.612z M-437.183,54.214v7.284h-16.492l0.009-25.463
			c0.162-4.41,3.78-7.941,8.233-7.941c4.558,0,8.25,3.693,8.25,8.25V54.214z"/>
	</g>
</g>
<g>
	<polygon fill="#D6D232" points="-369.523,71.371 -369.521,64.625 -355.971,64.625 -355.971,61.501 -369.52,61.501 -369.515,28.388 
		-341.46,28.388 -341.46,16.607 -369.513,16.607 -380.981,16.607 -381.095,16.607 -381.095,28.388 -380.981,28.388 -380.981,71.371 
		-381.094,71.371 -381.094,83.152 -380.981,83.152 -369.527,83.152 -341.459,83.152 -341.459,71.371 	"/>
</g>
<rect x="-460.576" y="52.745" fill="#D6D232" width="30.288" height="11.907"/>
<rect x="-375.576" y="52.745" fill="#D6D232" width="20.996" height="11.907"/>
<polygon fill="#D6D232" points="-159.67,16.209 -173.76,16.209 -173.76,27.99 -159.67,27.99 -159.67,82.744 -148.215,82.744 
	-148.215,27.99 -134.125,27.99 -134.125,16.209 -148.215,16.209 "/>
<g>
	<g>
		<path fill="#D6D232" d="M-114.694,16.702c-10.494,0-19.069,8.207-19.667,18.549l-0.037-0.002v47.988h11.454l0.007-18.527h16.493
			v18.527h11.455v-46.83C-94.989,25.524-103.812,16.702-114.694,16.702z M-106.444,54.304v7.283h-16.492l0.009-25.463
			c0.162-4.41,3.78-7.941,8.233-7.941c4.558,0,8.25,3.693,8.25,8.25V54.304z"/>
	</g>
</g>
<polygon fill="#D6D232" points="-36.774,16.702 -50.864,16.702 -50.864,28.483 -36.774,28.483 -36.774,83.237 -25.319,83.237 
	-25.319,28.483 -11.229,28.483 -11.229,16.702 -25.319,16.702 "/>
<path fill="#D6D232" d="M-52.867,34.226c-0.619-10.306-9.135-18.479-19.59-18.507v-0.003h-8.354h-3.146h-8.317v67.35h11.463V64.247
	h9.059v-0.008c4.172,0.41,7.432,3.91,7.432,8.189v1.508v9.301h11.457V72.405c0-5.445-2.213-10.377-5.783-13.943
	c3.57-3.566,5.783-8.498,5.783-13.943V34.226H-52.867z M-64.321,42.983v1.51c0,4.324-3.332,7.859-7.568,8.207h-8.922v-25.52h8.292
	v0.016c0.003,0,0.007,0,0.01,0c4.149,0,7.571,3.064,8.153,7.052h0.035V42.983z"/>
<g>
	<g>
		<path fill="#D6D232" d="M-254.338,15.896c-10.494,0-19.069,8.207-19.667,18.549l-0.037-0.002v16.333v1.388v13.333l0.037-0.002
			c0.598,10.342,9.173,18.549,19.667,18.549c10.883,0,19.705-8.822,19.705-19.705V52.164v-1.388V35.601
			C-234.633,24.718-243.455,15.896-254.338,15.896z M-246.088,52.164v12.149c0,4.557-3.692,8.25-8.25,8.25
			c-4.453,0-8.071-3.531-8.233-7.941l-0.005-13.22l0.005-16.084c0.162-4.41,3.78-7.941,8.233-7.941c4.558,0,8.25,3.693,8.25,8.25
			v15.149V52.164z"/>
	</g>
</g>
<polygon fill="#D6D232" points="-301.369,16.508 -315.459,16.508 -315.459,28.29 -301.369,28.29 -301.369,83.043 -289.914,83.043 
	-289.914,28.29 -275.824,28.29 -275.824,16.508 -289.914,16.508 "/>
<rect x="-129.838" y="53.104" fill="#D6D232" width="30.288" height="11.907"/>
<g>
	<path fill="#D6D232" d="M-174.28,64.467c-0.637-10.302-9.187-18.464-19.648-18.469v-0.012c-0.003,0-0.007,0-0.01,0
		c-4.149,0-7.571-3.064-8.153-7.052v-4.448c0.582-3.987,4.004-7.052,8.153-7.052s7.569,3.066,8.149,7.052h11.516
		c-0.605-10.334-9.177-18.532-19.665-18.532c-10.487,0-19.036,8.198-19.646,18.532v4.448c0.609,10.334,9.158,18.532,19.646,18.532
		c0.003,0,0.007-0.001,0.01-0.001v0.012c4.134,0.005,7.54,3.054,8.134,7.021c-0.593,3.967-4,7.016-8.134,7.021v0.008h-19.655v11.473
		h19.914v-0.013c10.343-0.141,18.759-8.241,19.39-18.457h0.007c-0.001-0.011-0.003-0.021-0.003-0.031s0.002-0.021,0.003-0.031
		H-174.28z"/>
</g>
</svg>
